<svg width="21" height="21" viewBox="0 0 21 21" fill="none" xmlns="http://www.w3.org/2000/svg">
<path d="M10.5 8.57483V17.4998M10.5 17.4998L9.99117 16.7368C9.53901 16.0585 9.31225 15.7184 9.01233 15.4719C8.74573 15.2527 8.43767 15.0885 8.10748 14.9883C7.73449 14.875 7.3237 14.875 6.50189 14.875H4.02322C3.53413 14.875 3.28965 14.875 3.10266 14.7797C2.93802 14.6958 2.80426 14.5616 2.72037 14.397C2.625 14.2098 2.625 13.9651 2.625 13.4751V5.77509C2.625 5.28504 2.625 5.03983 2.72037 4.85266C2.80426 4.68802 2.93802 4.55426 3.10266 4.47037C3.28983 4.375 3.53461 4.375 4.02466 4.375H6.29966C7.7698 4.375 8.50504 4.375 9.06655 4.66111C9.56048 4.91278 9.96208 5.31449 10.2137 5.80841C10.4999 6.36993 10.5 7.10469 10.5 8.57483C10.5 7.10469 10.5 6.36993 10.7861 5.80841C11.0378 5.31449 11.4391 4.91278 11.933 4.66111C12.4945 4.375 13.2297 4.375 14.6998 4.375H16.9748C17.4649 4.375 17.7101 4.375 17.8972 4.47037C18.0619 4.55426 18.1954 4.68802 18.2793 4.85266C18.3747 5.03983 18.375 5.28504 18.375 5.77509V13.4751C18.375 13.9651 18.3747 14.2098 18.2793 14.397C18.1954 14.5616 18.0622 14.6958 17.8975 14.7797C17.7105 14.875 17.4659 14.875 16.9768 14.875H14.4982C13.6764 14.875 13.2647 14.875 12.8917 14.9883C12.5615 15.0885 12.255 15.2527 11.9884 15.4719C11.6872 15.7194 11.459 16.0613 11.0032 16.7451L10.5 17.4998Z" stroke="#C6C6C6" stroke-width="2" stroke-linecap="round" stroke-linejoin="round"/>
</svg>
